# xmcd
#
# Track frame offsets:
# 150
# 9811
# 26650
# 40165
# 49739
# 63252
# 74144
# 91667
# 103804
# 116049
# 135067
# 146591
# 162962
# 166704
# 178762
# 200388
# 206361
# 214520
# 231886
# 239235
#
# Disc length: 3347 seconds
#
#
# Revision: 2
# Processed by: cddbd v1.5.2PL0 Copyright (c) Steve Scherf et al.
# Submitted via: FreeRIP 2.96 
#
DISCID=110d1114
DTITLE=Statler Brothers, The - Farewell Concert CD01
DYEAR=2003
DGENRE=Country
TTITLE0=Spoken - Welcome
TTITLE1=Spoken - Jimmy Dean Introduces The Statler Brothers
TTITLE2=Do You Remember These
TTITLE3=Do You Know You Are My Sunshine
TTITLE4=Spoken - The Statler Brothers Say Hello And Harold Tells A Story
TTITLE5=Susan When She Tried
TTITLE6=Too Much On My Heart
TTITLE7=Class Of '57
TTITLE8=Bed Of Roses
TTITLE9=Spoken - Phil Is Even Older
TTITLE10=Oh Baby Mine
TTITLE11=Moments To Remember
TTITLE12=Spoken - In The Studio With A Bunch Of Girl Backup Singers
TTITLE13=Memories Are Made Of This
TTITLE14=The Great Pretender
TTITLE15=Spoken - Stuff For Sale
TTITLE16=Whatever Happened To Randolph Scott
TTITLE17=More Than A Name On A Wall
TTITLE18=Flowers On The Wall
TTITLE19=Elizabeth
EXTD=
EXTT0=
EXTT1=
EXTT2=
EXTT3=
EXTT4=
EXTT5=
EXTT6=
EXTT7=
EXTT8=
EXTT9=
EXTT10=
EXTT11=
EXTT12=
EXTT13=
EXTT14=
EXTT15=
EXTT16=
EXTT17=
EXTT18=
EXTT19=
PLAYORDER=
